<svg xmlns="http://www.w3.org/2000/svg" viewBox="0 0 20.75 20.75"><defs><style>.cls-1{fill:#4a7689;}</style></defs><title>calendar</title><g id="Capa_2" data-name="Capa 2"><g id="Layer_1" data-name="Layer 1"><path class="cls-1" d="M18.26,1.61h-.89V0H15.61V1.61H5.14V0H3.38V1.61H2.49A2.5,2.5,0,0,0,0,4.1V18.26a2.5,2.5,0,0,0,2.49,2.49H18.26a2.5,2.5,0,0,0,2.49-2.49V4.1A2.5,2.5,0,0,0,18.26,1.61ZM2.49,3.37h.89V5H5.14V3.37H15.61V5h1.76V3.37h.89A.73.73,0,0,1,19,4.1V6H1.76V4.1A.73.73,0,0,1,2.49,3.37ZM18.26,19H2.49a.73.73,0,0,1-.73-.73V7.71H19V18.26A.73.73,0,0,1,18.26,19Z"/><rect class="cls-1" x="3.27" y="9.62" width="3.21" height="3.21"/><rect class="cls-1" x="8.77" y="9.62" width="3.21" height="3.21"/><rect class="cls-1" x="14.27" y="9.62" width="3.21" height="3.21"/><rect class="cls-1" x="3.27" y="14.78" width="3.21" height="3.21"/><rect class="cls-1" x="8.77" y="14.78" width="3.21" height="3.21"/></g></g></svg>